<svg width="45" height="36" viewBox="0 0 45 36" fill="none" xmlns="http://www.w3.org/2000/svg">
<path d="M39.9017 8.90529C39.9304 9.29175 39.9304 9.676 39.9304 10.0603C39.9304 21.8196 30.98 35.37 14.6229 35.37C9.58349 35.37 4.90182 33.9103 0.962158 31.3751C1.67766 31.4568 2.36666 31.4855 3.11087 31.4855C7.26916 31.4855 11.0962 30.081 14.1547 27.685C10.2438 27.6033 6.96662 25.0416 5.83595 21.5171C6.38582 21.5988 6.93791 21.654 7.51649 21.654C8.3137 21.654 9.11532 21.5436 9.85953 21.3515C5.78074 20.5255 2.72662 16.9458 2.72662 12.6219V12.5115C3.91249 13.1718 5.28828 13.5848 6.74578 13.64C4.34974 12.0455 2.77962 9.31825 2.77962 6.23321C2.77962 4.58138 3.21907 3.06646 3.98978 1.74588C8.36891 7.14084 14.9519 10.6675 22.3322 11.054C22.1953 10.3915 22.1114 9.70471 22.1114 9.01571C22.1114 4.11321 26.0775 0.120544 31.0065 0.120544C33.5682 0.120544 35.8803 1.19379 37.5057 2.92954C39.5152 2.54309 41.4409 1.79888 43.1502 0.780836C42.4899 2.84563 41.0832 4.58138 39.2392 5.68334C41.0302 5.489 42.7659 4.99434 44.3603 4.30534C43.1502 6.06759 41.6374 7.63771 39.9017 8.90529Z" fill="white"/>
</svg>
