<svg width="66" height="41" viewBox="0 0 66 41" fill="none" xmlns="http://www.w3.org/2000/svg">
<path d="M63.7228 6.65372C62.9753 4.22272 60.7815 2.30455 57.9963 1.65005C52.9068 0.43172 32.5455 0.411887 32.5455 0.411887C32.5455 0.411887 12.1875 0.392053 7.09476 1.55655C4.36476 2.20539 2.10926 4.16605 1.35526 6.59422C0.0130054 11.0312 4.76172e-06 20.2339 4.76172e-06 20.2339C4.76172e-06 20.2339 -0.0129952 29.4819 1.3195 33.8736C2.067 36.3017 4.26076 38.2199 7.04926 38.8744C12.1908 40.0927 32.4968 40.1125 32.4968 40.1125C32.4968 40.1125 52.858 40.1324 57.9475 38.9707C60.7295 38.319 62.933 36.4037 63.6903 33.9756C65.0358 29.5414 65.0455 20.3416 65.0455 20.3416C65.0455 20.3416 65.1105 11.0907 63.7228 6.65372ZM26.0325 28.7594L26.0488 11.7594L42.9715 20.2736L26.0325 28.7594Z" fill="white"/>
</svg>
